<mxfile host="app.diagrams.net" agent="Mozilla/5.0 (Windows NT 10.0; Win64; x64) AppleWebKit/537.36 (KHTML, like Gecko) Chrome/131.0.0.0 Safari/537.36 Edg/131.0.0.0" version="26.0.2">
  <diagram name="Page-1" id="82CoEbNhP8tWpkq21DGx">
    <mxGraphModel dx="715" dy="365" grid="1" gridSize="10" guides="1" tooltips="1" connect="1" arrows="1" fold="1" page="1" pageScale="1" pageWidth="850" pageHeight="1100" math="0" shadow="0">
      <root>
        <mxCell id="0" />
        <mxCell id="1" parent="0" />
        <mxCell id="IERzPVbQtU5K6ghA4DRd-1" value="START" style="ellipse;whiteSpace=wrap;html=1;" vertex="1" parent="1">
          <mxGeometry x="290" y="10" width="160" height="80" as="geometry" />
        </mxCell>
        <mxCell id="IERzPVbQtU5K6ghA4DRd-19" style="edgeStyle=orthogonalEdgeStyle;rounded=0;orthogonalLoop=1;jettySize=auto;html=1;exitX=0.5;exitY=1;exitDx=0;exitDy=0;" edge="1" parent="1" source="IERzPVbQtU5K6ghA4DRd-2" target="IERzPVbQtU5K6ghA4DRd-5">
          <mxGeometry relative="1" as="geometry" />
        </mxCell>
        <mxCell id="IERzPVbQtU5K6ghA4DRd-2" value="Taking a number as Input from the user" style="shape=parallelogram;perimeter=parallelogramPerimeter;whiteSpace=wrap;html=1;fixedSize=1;" vertex="1" parent="1">
          <mxGeometry x="240" y="130" width="250" height="60" as="geometry" />
        </mxCell>
        <mxCell id="IERzPVbQtU5K6ghA4DRd-3" value="Step:1" style="text;html=1;align=center;verticalAlign=middle;whiteSpace=wrap;rounded=0;" vertex="1" parent="1">
          <mxGeometry x="275" y="130" width="180" height="30" as="geometry" />
        </mxCell>
        <mxCell id="IERzPVbQtU5K6ghA4DRd-4" value="Remainder = input%2" style="rounded=0;whiteSpace=wrap;html=1;" vertex="1" parent="1">
          <mxGeometry x="240" y="220" width="230" height="60" as="geometry" />
        </mxCell>
        <mxCell id="IERzPVbQtU5K6ghA4DRd-5" value="Step:2" style="text;html=1;align=center;verticalAlign=middle;whiteSpace=wrap;rounded=0;" vertex="1" parent="1">
          <mxGeometry x="332.5" y="220" width="60" height="20" as="geometry" />
        </mxCell>
        <mxCell id="IERzPVbQtU5K6ghA4DRd-22" style="edgeStyle=orthogonalEdgeStyle;rounded=0;orthogonalLoop=1;jettySize=auto;html=1;exitX=0;exitY=0.5;exitDx=0;exitDy=0;entryX=0.5;entryY=0;entryDx=0;entryDy=0;" edge="1" parent="1" source="IERzPVbQtU5K6ghA4DRd-6" target="IERzPVbQtU5K6ghA4DRd-7">
          <mxGeometry relative="1" as="geometry" />
        </mxCell>
        <mxCell id="IERzPVbQtU5K6ghA4DRd-23" style="edgeStyle=orthogonalEdgeStyle;rounded=0;orthogonalLoop=1;jettySize=auto;html=1;exitX=1;exitY=0.5;exitDx=0;exitDy=0;entryX=0.5;entryY=0;entryDx=0;entryDy=0;" edge="1" parent="1" source="IERzPVbQtU5K6ghA4DRd-6" target="IERzPVbQtU5K6ghA4DRd-8">
          <mxGeometry relative="1" as="geometry" />
        </mxCell>
        <mxCell id="IERzPVbQtU5K6ghA4DRd-6" value="Check remainder for zero:&lt;div&gt;Remainder = 0&lt;/div&gt;" style="rhombus;whiteSpace=wrap;html=1;" vertex="1" parent="1">
          <mxGeometry x="200" y="300" width="330" height="80" as="geometry" />
        </mxCell>
        <mxCell id="IERzPVbQtU5K6ghA4DRd-24" style="edgeStyle=orthogonalEdgeStyle;rounded=0;orthogonalLoop=1;jettySize=auto;html=1;exitX=0.5;exitY=1;exitDx=0;exitDy=0;entryX=0;entryY=0.5;entryDx=0;entryDy=0;" edge="1" parent="1" source="IERzPVbQtU5K6ghA4DRd-7" target="IERzPVbQtU5K6ghA4DRd-11">
          <mxGeometry relative="1" as="geometry" />
        </mxCell>
        <mxCell id="IERzPVbQtU5K6ghA4DRd-7" value="ODD" style="shape=parallelogram;perimeter=parallelogramPerimeter;whiteSpace=wrap;html=1;fixedSize=1;" vertex="1" parent="1">
          <mxGeometry x="70" y="400" width="120" height="60" as="geometry" />
        </mxCell>
        <mxCell id="IERzPVbQtU5K6ghA4DRd-25" style="edgeStyle=orthogonalEdgeStyle;rounded=0;orthogonalLoop=1;jettySize=auto;html=1;exitX=0.5;exitY=1;exitDx=0;exitDy=0;entryX=1;entryY=0.5;entryDx=0;entryDy=0;" edge="1" parent="1" source="IERzPVbQtU5K6ghA4DRd-8" target="IERzPVbQtU5K6ghA4DRd-11">
          <mxGeometry relative="1" as="geometry" />
        </mxCell>
        <mxCell id="IERzPVbQtU5K6ghA4DRd-8" value="EVEN" style="shape=parallelogram;perimeter=parallelogramPerimeter;whiteSpace=wrap;html=1;fixedSize=1;" vertex="1" parent="1">
          <mxGeometry x="500" y="390" width="120" height="60" as="geometry" />
        </mxCell>
        <mxCell id="IERzPVbQtU5K6ghA4DRd-9" value="If not" style="text;html=1;align=center;verticalAlign=middle;whiteSpace=wrap;rounded=0;" vertex="1" parent="1">
          <mxGeometry x="10" y="420" width="60" height="30" as="geometry" />
        </mxCell>
        <mxCell id="IERzPVbQtU5K6ghA4DRd-10" value="If yes" style="text;html=1;align=center;verticalAlign=middle;whiteSpace=wrap;rounded=0;" vertex="1" parent="1">
          <mxGeometry x="620" y="405" width="60" height="30" as="geometry" />
        </mxCell>
        <mxCell id="IERzPVbQtU5K6ghA4DRd-11" value="End" style="ellipse;whiteSpace=wrap;html=1;" vertex="1" parent="1">
          <mxGeometry x="295" y="480" width="120" height="80" as="geometry" />
        </mxCell>
        <mxCell id="IERzPVbQtU5K6ghA4DRd-12" value="Step:3" style="text;html=1;align=center;verticalAlign=middle;whiteSpace=wrap;rounded=0;" vertex="1" parent="1">
          <mxGeometry x="325" y="300" width="75" height="30" as="geometry" />
        </mxCell>
        <mxCell id="IERzPVbQtU5K6ghA4DRd-13" value="Lastly," style="text;html=1;align=center;verticalAlign=middle;whiteSpace=wrap;rounded=0;" vertex="1" parent="1">
          <mxGeometry x="320" y="450" width="60" height="30" as="geometry" />
        </mxCell>
        <mxCell id="IERzPVbQtU5K6ghA4DRd-18" style="edgeStyle=orthogonalEdgeStyle;rounded=0;orthogonalLoop=1;jettySize=auto;html=1;exitX=0.5;exitY=1;exitDx=0;exitDy=0;entryX=0.539;entryY=-0.133;entryDx=0;entryDy=0;entryPerimeter=0;" edge="1" parent="1" source="IERzPVbQtU5K6ghA4DRd-1" target="IERzPVbQtU5K6ghA4DRd-3">
          <mxGeometry relative="1" as="geometry" />
        </mxCell>
        <mxCell id="IERzPVbQtU5K6ghA4DRd-20" style="edgeStyle=orthogonalEdgeStyle;rounded=0;orthogonalLoop=1;jettySize=auto;html=1;exitX=0.5;exitY=1;exitDx=0;exitDy=0;entryX=0.6;entryY=0.333;entryDx=0;entryDy=0;entryPerimeter=0;" edge="1" parent="1" source="IERzPVbQtU5K6ghA4DRd-4" target="IERzPVbQtU5K6ghA4DRd-12">
          <mxGeometry relative="1" as="geometry" />
        </mxCell>
      </root>
    </mxGraphModel>
  </diagram>
</mxfile>
